<?xml version="1.0" standalone="no"?>
<!DOCTYPE svg PUBLIC "-//W3C//DTD SVG 20010904//EN"
 "http://www.w3.org/TR/2001/REC-SVG-20010904/DTD/svg10.dtd">
<svg version="1.0" xmlns="http://www.w3.org/2000/svg"
 width="2400.000000pt" height="3000.000000pt" viewBox="0 0 2400.000000 3000.000000"
 preserveAspectRatio="xMidYMid meet">

<g transform="translate(0.000000,3000.000000) scale(0.100000,-0.100000)"
fill="#000000" stroke="none">
<path d="M16350 25376 c0 -10 -28 -15 -112 -20 -166 -10 -327 -26 -378 -38
-25 -6 -90 -16 -145 -23 -101 -13 -187 -32 -303 -66 -34 -11 -71 -19 -81 -19
-10 0 -44 -9 -76 -20 -32 -11 -68 -20 -79 -20 -12 -1 -39 -9 -61 -20 -22 -11
-47 -19 -55 -20 -8 0 -31 -8 -50 -19 -19 -10 -51 -22 -70 -26 -19 -4 -44 -13
-55 -20 -11 -7 -36 -16 -55 -20 -19 -4 -46 -13 -60 -20 -14 -7 -52 -25 -85
-40 -56 -26 -68 -31 -112 -54 -10 -5 -63 -30 -118 -57 -96 -45 -171 -87 -330
-184 -41 -25 -96 -58 -122 -74 -146 -89 -450 -331 -643 -513 -30 -28 -66 -62
-80 -75 -150 -138 -500 -570 -612 -753 -20 -33 -52 -87 -72 -120 -20 -33 -47
-78 -61 -100 -48 -79 -86 -150 -91 -172 -3 -12 -12 -27 -20 -34 -8 -6 -14 -16
-14 -21 0 -5 -29 -70 -65 -143 -36 -74 -65 -139 -65 -145 0 -5 -8 -29 -19 -52
-10 -24 -24 -59 -31 -78 -6 -19 -23 -64 -36 -100 -46 -123 -85 -254 -124 -410
-10 -41 -24 -94 -30 -118 -7 -23 -10 -45 -8 -48 3 -3 65 7 138 22 129 27 134
28 268 15 76 -6 157 -16 181 -22 24 -5 45 -8 47 -7 2 2 10 33 18 68 18 82 47
175 80 265 15 39 33 88 41 110 42 122 42 122 184 415 39 80 177 314 231 390
289 413 643 775 1006 1030 78 55 176 120 181 120 3 0 36 19 72 43 100 63 103
65 141 85 19 10 44 23 55 29 11 6 81 40 155 76 128 61 174 80 307 129 32 11
78 28 103 38 71 28 283 87 375 106 17 3 46 12 65 19 19 7 69 16 110 20 41 3
100 13 130 21 30 7 179 23 330 35 l276 21 269 -21 c149 -12 297 -28 330 -35
33 -8 92 -17 130 -21 39 -4 84 -13 101 -20 17 -7 51 -16 75 -20 24 -3 70 -15
102 -26 31 -10 65 -19 76 -19 23 0 163 -45 201 -65 16 -8 37 -15 47 -15 10 0
34 -8 53 -18 19 -11 49 -22 65 -26 17 -4 50 -16 75 -27 71 -32 134 -61 150
-70 8 -5 26 -14 40 -20 93 -39 189 -92 393 -217 274 -168 579 -422 808 -673
57 -63 114 -125 127 -139 46 -49 202 -258 270 -361 36 -56 56 -88 135 -219 41
-68 214 -417 228 -460 4 -14 19 -54 33 -90 13 -36 30 -81 36 -100 7 -19 21
-55 30 -80 24 -60 60 -183 60 -201 0 -8 9 -43 19 -79 29 -95 59 -235 66 -315
4 -38 14 -97 21 -130 8 -33 19 -157 24 -275 5 -120 9 -1597 10 -3352 0 -1725
4 -3139 8 -3142 4 -2 37 8 72 24 36 16 90 34 120 41 77 16 227 5 325 -25 44
-13 83 -21 88 -17 12 12 2 6332 -11 6561 -6 107 -17 224 -26 260 -8 36 -18 94
-21 130 -8 74 -53 309 -63 324 -6 10 -18 62 -58 236 -8 36 -21 79 -29 97 -8
17 -15 36 -15 43 0 6 -8 32 -19 58 -10 26 -30 79 -44 117 -63 172 -85 222
-183 420 -86 174 -147 285 -223 405 -5 8 -26 43 -47 77 -71 118 -330 452 -467
601 -182 198 -411 406 -590 537 -37 28 -100 75 -140 105 -40 31 -90 67 -112
80 -67 42 -71 44 -111 68 -22 12 -52 31 -69 42 -16 11 -46 29 -65 40 -19 12
-53 32 -75 45 -22 14 -51 29 -65 35 -14 6 -97 46 -185 89 -164 79 -218 104
-315 138 -30 11 -89 33 -130 48 -167 62 -199 72 -325 100 -33 8 -82 21 -110
29 -101 30 -213 56 -246 56 -19 1 -68 7 -109 15 -102 20 -300 42 -442 51 -90
5 -118 10 -118 20 0 11 -33 14 -175 14 -141 0 -175 -3 -175 -14z"/>
<path d="M4587 21923 l-2738 -3 7 -23 c4 -12 11 -35 15 -52 12 -45 39 -125 60
-173 11 -23 19 -49 19 -58 0 -8 9 -32 19 -52 18 -35 41 -85 91 -197 28 -63
100 -206 134 -265 14 -25 35 -63 46 -85 22 -45 29 -57 82 -138 21 -32 38 -61
38 -64 0 -9 167 -258 215 -320 22 -29 76 -102 120 -164 86 -120 250 -321 352
-434 35 -38 80 -94 100 -123 45 -68 391 -439 520 -558 54 -50 154 -140 223
-201 69 -61 139 -125 155 -143 17 -18 48 -40 70 -50 36 -16 170 -121 272 -215
21 -19 41 -35 44 -35 4 0 56 -39 117 -87 267 -211 336 -262 420 -304 62 -32
67 -32 187 -32 111 1 127 3 151 22 15 11 33 21 41 21 13 0 178 115 215 149 9
9 27 24 40 33 72 54 198 155 233 187 22 21 60 50 85 67 25 16 50 34 55 41 6 6
42 34 80 63 39 28 115 93 170 144 55 52 138 126 185 166 137 118 546 526 641
640 29 36 108 126 174 200 126 141 262 307 330 404 22 31 48 67 58 79 10 12
46 60 80 107 34 47 76 105 94 130 39 54 124 176 138 199 5 9 26 41 45 71 19
30 41 66 48 80 7 14 23 43 37 65 47 80 143 265 185 360 26 58 65 143 89 196
12 25 21 52 21 60 0 8 6 24 14 35 8 11 17 38 21 60 4 21 14 49 21 62 8 12 19
44 24 70 7 39 6 49 -7 60 -13 9 -137 11 -557 10 -298 -2 -1773 -4 -3279 -5z"/>
<path d="M13370 20718 c-39 -6 -774 -13 -1850 -17 -1980 -8 -1840 -2 -1975
-75 -146 -79 -258 -195 -327 -336 -85 -178 -87 -199 -90 -1023 l-3 -677 3108
0 3108 0 -3 748 c-3 687 -4 750 -20 784 -10 21 -18 48 -18 60 0 34 -69 165
-127 241 -48 63 -112 121 -199 180 -22 15 -44 27 -48 27 -4 0 -19 9 -33 20
-14 11 -35 20 -47 20 -11 0 -34 7 -51 16 -16 9 -68 21 -115 26 -112 14 -1224
19 -1310 6z"/>
<path d="M10758 17690 c-114 -39 -172 -99 -207 -215 -12 -37 -21 -90 -21 -119
0 -60 -12 -76 -55 -76 -67 0 -190 -31 -230 -58 -47 -32 -65 -52 -102 -112 -26
-41 -28 -53 -28 -145 0 -98 1 -101 37 -156 20 -32 57 -71 83 -89 48 -33 146
-60 218 -60 64 0 77 -13 77 -75 0 -71 40 -194 78 -243 17 -21 59 -54 93 -72
125 -66 256 -47 354 54 67 68 83 104 91 214 8 107 19 122 90 122 23 0 74 7
114 16 68 16 78 21 135 79 57 56 64 68 80 134 15 63 16 80 5 134 -16 78 -65
155 -123 195 -43 29 -166 62 -231 62 -55 0 -63 12 -70 112 -12 162 -81 254
-223 298 -80 24 -93 24 -165 0z"/>
<path d="M3910 17534 c-70 -37 -160 -52 -301 -48 -108 2 -135 6 -189 28 -35
14 -65 26 -67 26 -2 0 -3 -1346 -3 -2990 0 -2990 4 -3417 35 -3560 7 -36 17
-99 20 -140 4 -41 13 -100 20 -130 7 -30 16 -77 20 -105 3 -27 15 -79 25 -115
22 -79 37 -136 55 -215 8 -33 28 -98 45 -145 17 -47 36 -101 41 -120 6 -19 19
-53 30 -76 10 -22 19 -47 19 -55 1 -8 9 -32 20 -54 11 -22 19 -46 20 -52 0
-12 138 -303 197 -418 25 -48 76 -131 114 -187 11 -15 19 -29 19 -31 0 -17
119 -193 229 -341 374 -501 828 -909 1356 -1221 33 -19 78 -46 100 -60 22 -14
51 -30 65 -37 14 -6 86 -40 160 -76 74 -35 153 -72 175 -82 22 -10 61 -28 86
-39 25 -12 52 -21 60 -21 8 -1 32 -9 54 -20 22 -11 47 -19 55 -20 8 0 32 -9
53 -20 20 -11 44 -20 52 -20 8 0 34 -8 57 -19 44 -19 124 -41 233 -65 33 -7
83 -20 110 -28 91 -28 189 -48 277 -58 48 -6 116 -17 150 -25 35 -7 142 -19
238 -25 96 -6 227 -15 290 -20 83 -7 165 -5 300 5 102 7 232 17 290 20 58 4
143 15 190 25 47 10 117 20 156 24 39 3 90 13 114 21 23 8 53 15 66 15 13 0
45 7 71 16 26 10 75 23 108 30 85 18 206 52 230 64 23 11 89 35 155 56 55 17
76 27 210 93 58 28 109 52 113 51 5 0 20 9 34 20 14 11 32 20 40 20 8 0 26 9
40 20 14 11 33 20 43 20 10 0 29 9 43 20 14 11 34 20 45 20 11 0 25 7 32 15 6
8 22 17 33 21 12 3 31 14 42 24 11 9 40 25 65 34 158 60 543 339 800 578 152
142 312 308 421 438 100 119 319 420 342 470 4 8 21 35 37 60 16 25 34 54 40
65 6 11 24 40 40 65 63 97 249 489 300 630 24 67 49 135 75 205 15 39 33 97
40 130 8 33 21 80 30 104 8 24 15 53 15 64 0 11 9 48 19 81 27 86 61 248 61
291 0 20 9 81 20 135 21 104 38 338 48 691 5 162 10 220 21 233 13 15 84 16
990 10 889 -6 987 -5 1096 10 106 15 200 41 245 67 8 5 33 18 56 29 86 43 220
174 281 275 36 60 73 141 73 161 0 13 8 43 18 66 15 39 17 92 17 588 l0 545
-3104 0 -3103 0 1 -484 c2 -503 11 -644 47 -728 43 -100 92 -188 133 -237 54
-64 171 -162 221 -184 19 -9 42 -21 50 -28 8 -6 33 -16 55 -22 22 -6 60 -19
85 -29 42 -17 113 -18 1115 -23 l1069 -5 14 -25 c10 -19 12 -62 8 -190 -12
-348 -25 -547 -39 -610 -9 -36 -20 -109 -26 -164 -6 -54 -14 -104 -18 -110 -4
-6 -15 -46 -25 -88 -46 -198 -77 -313 -101 -368 -8 -19 -24 -60 -35 -90 -58
-161 -92 -241 -173 -405 -48 -99 -103 -203 -121 -232 -18 -28 -49 -78 -68
-109 -58 -95 -112 -174 -185 -271 -39 -50 -79 -104 -90 -119 -54 -74 -310
-345 -426 -450 -161 -146 -376 -311 -529 -406 -63 -39 -137 -86 -165 -103 -98
-62 -444 -229 -540 -260 -22 -7 -71 -25 -110 -40 -103 -38 -246 -85 -262 -85
-15 0 -140 -33 -216 -56 -27 -9 -91 -20 -143 -25 -52 -5 -106 -14 -120 -19
-25 -10 -105 -18 -426 -41 -127 -9 -203 -9 -315 -1 -81 6 -193 14 -248 18 -55
3 -131 12 -170 20 -38 8 -107 19 -152 24 -45 5 -103 15 -130 24 -26 8 -70 20
-98 27 -27 6 -68 16 -90 22 -76 18 -180 50 -245 75 -36 14 -90 34 -120 45
-106 38 -136 50 -240 100 -206 98 -247 119 -373 195 -70 42 -142 85 -160 96
-17 10 -102 70 -187 134 -136 101 -210 164 -398 337 -167 153 -458 509 -589
720 -79 127 -157 257 -162 270 -2 6 -36 78 -76 160 -66 136 -98 212 -158 375
-11 30 -28 76 -38 102 -11 26 -19 53 -19 60 0 7 -8 42 -19 78 -49 165 -97 383
-107 485 -3 39 -13 97 -22 130 -15 54 -17 357 -19 3270 -2 1765 -7 3212 -11
3216 -4 3 -27 -4 -52 -17z"/>
<path d="M21095 12890 c-21 -5 0 -8 68 -10 53 -2 102 -3 107 -4 6 -1 10 3 10
9 0 12 -142 16 -185 5z"/>
<path d="M20775 12850 c-15 -7 -10 -9 23 -9 26 -1 41 3 37 9 -7 12 -32 12 -60
0z"/>
<path d="M21065 12850 c-162 -11 -340 -48 -480 -100 -27 -10 -65 -21 -84 -24
-19 -3 -40 -15 -47 -25 -8 -10 -35 -31 -61 -47 -27 -15 -59 -36 -73 -46 -14
-11 -86 -59 -160 -107 -226 -146 -380 -294 -507 -483 -51 -78 -70 -98 -88 -98
-19 0 -37 21 -89 98 -140 208 -331 389 -564 534 -29 18 -208 107 -257 128
-234 99 -548 150 -810 130 -211 -16 -239 -22 -410 -80 -27 -10 -84 -28 -125
-41 -41 -13 -86 -30 -100 -39 -14 -9 -36 -21 -50 -28 -14 -6 -32 -16 -40 -21
-8 -6 -53 -31 -100 -57 -102 -57 -102 -57 -260 -194 -69 -60 -150 -141 -180
-181 -30 -39 -80 -104 -110 -143 -63 -81 -219 -384 -237 -461 -15 -63 -38
-151 -63 -235 -10 -36 -22 -114 -25 -175 -3 -60 -10 -150 -16 -199 -7 -67 -6
-113 5 -190 8 -55 18 -146 21 -200 4 -55 13 -116 20 -135 7 -20 16 -61 20 -91
4 -30 12 -66 17 -80 6 -14 16 -56 23 -95 8 -38 22 -92 31 -120 10 -27 26 -74
36 -102 69 -200 93 -262 144 -371 24 -52 44 -95 44 -98 0 -6 99 -207 123 -249
13 -22 51 -89 85 -150 68 -120 241 -391 294 -460 18 -24 71 -97 118 -161 47
-65 99 -134 116 -153 17 -20 78 -93 135 -162 132 -160 475 -526 501 -535 11
-3 27 -18 36 -33 42 -66 84 -108 341 -345 151 -138 279 -256 285 -261 6 -6 83
-69 171 -142 88 -72 167 -139 176 -150 9 -10 58 -49 108 -88 51 -38 125 -95
164 -125 187 -142 250 -177 348 -195 54 -9 90 -10 112 -4 17 5 45 9 62 9 16 0
41 7 55 15 14 7 39 20 55 28 25 12 169 115 212 152 6 5 28 21 48 35 41 28 302
235 323 256 7 8 41 35 75 60 34 26 67 52 72 58 6 6 39 36 75 66 36 30 85 73
110 96 25 22 101 92 170 154 233 212 670 662 865 890 50 58 95 110 101 115 13
12 121 152 184 239 25 35 61 82 81 107 35 44 105 143 124 177 12 20 72 113
125 192 44 66 89 146 172 300 10 19 30 53 43 75 13 22 27 47 30 55 3 8 14 33
24 55 11 22 29 63 41 90 39 87 72 159 91 196 11 20 19 44 19 53 0 9 9 34 20
56 11 22 20 49 20 60 0 11 9 38 20 60 11 22 20 47 20 57 0 10 8 34 19 53 10
19 21 58 26 85 4 28 11 58 17 68 5 10 15 53 23 97 8 44 19 88 25 99 6 11 15
64 20 118 11 118 28 203 41 203 5 0 9 97 9 230 0 127 -4 230 -8 230 -8 0 -22
58 -43 179 -5 29 -16 65 -23 80 -7 14 -17 48 -21 76 -4 27 -13 61 -20 75 -7
14 -15 41 -19 61 -4 21 -13 42 -20 48 -8 7 -17 24 -21 38 -3 15 -15 38 -26 51
-10 14 -19 32 -19 41 0 9 -9 27 -20 41 -11 14 -20 32 -20 40 0 18 -61 108
-135 200 -28 36 -67 87 -86 114 -43 61 -303 285 -387 334 -35 20 -80 47 -100
59 -21 12 -56 32 -80 44 -23 12 -45 25 -48 30 -3 5 -14 9 -25 9 -11 0 -37 9
-59 20 -22 11 -49 20 -60 20 -11 0 -38 9 -60 20 -22 11 -49 20 -60 20 -11 0
-37 8 -58 19 -22 11 -71 21 -122 25 -104 7 -151 20 -175 46 -20 22 -46 23
-240 10z"/>
<path d="M20623 12803 c9 -2 23 -2 30 0 6 3 -1 5 -18 5 -16 0 -22 -2 -12 -5z"/>
<path d="M20500 12760 c19 -13 30 -13 30 0 0 6 -10 10 -22 10 -19 0 -20 -2 -8
-10z"/>
<path d="M20390 12720 c0 -5 4 -10 9 -10 6 0 13 5 16 10 3 6 -1 10 -9 10 -9 0
-16 -4 -16 -10z"/>
<path d="M1697 4938 c2 -1245 3 -1276 24 -1403 27 -166 58 -265 122 -389 62
-118 162 -231 268 -302 287 -190 791 -191 1077 0 76 50 227 202 282 284 19 28
37 51 40 51 3 0 25 -30 50 -67 64 -94 173 -206 257 -263 290 -196 739 -197
1051 -3 230 144 396 400 441 684 7 43 11 510 11 1373 l0 1307 -505 0 -505 0
-2 -1177 -3 -1178 -24 -52 c-55 -123 -201 -127 -247 -6 -18 46 -19 107 -22
1231 l-3 1182 -504 0 -505 0 -2 -1187 -3 -1188 -23 -43 c-28 -52 -74 -82 -127
-82 -55 0 -101 30 -117 77 -10 30 -13 292 -16 1231 l-3 1192 -507 0 -507 0 2
-1272z"/>
<path d="M10170 4501 l0 -1711 505 0 505 0 2 1253 3 1252 150 0 c133 -1 154
-3 190 -22 97 -51 128 -135 86 -229 -29 -63 -76 -93 -176 -112 l-85 -17 0
-452 0 -451 153 -4 c139 -3 156 -5 201 -28 71 -36 91 -67 91 -143 0 -108 -45
-145 -199 -166 -43 -6 -115 -11 -162 -11 l-84 0 0 -436 0 -436 248 5 c218 4
259 8 354 30 130 31 223 69 308 127 226 152 361 354 405 607 20 115 20 335 0
440 -30 156 -97 288 -205 406 -65 71 -209 174 -275 198 -19 7 -35 17 -35 22 0
5 36 43 81 84 116 109 188 217 238 355 32 88 44 167 44 288 0 263 -67 447
-217 595 -116 114 -251 181 -469 232 l-112 26 -772 4 -773 4 0 -1710z"/>
<path d="M13060 4500 l0 -1710 465 0 465 0 0 1710 0 1710 -465 0 -465 0 0
-1710z"/>
<path d="M21918 5088 l-3 -1123 -33 -82 c-39 -97 -89 -153 -170 -191 -77 -36
-209 -38 -292 -5 -80 33 -153 101 -192 180 -29 59 -33 77 -33 148 0 121 22
174 109 261 56 55 83 74 125 87 103 33 218 18 304 -39 20 -13 37 -21 37 -17 2
94 -1 1018 -4 1020 -12 12 -361 11 -436 -1 -264 -41 -495 -162 -700 -366 -189
-188 -300 -385 -355 -629 -135 -598 147 -1193 689 -1456 143 -69 202 -88 361
-115 572 -97 1138 173 1379 658 48 96 72 156 97 250 53 198 51 163 56 1395 l4
1147 -470 0 -471 0 -2 -1122z"/>
<path d="M6875 5329 c-125 -16 -272 -62 -395 -124 -116 -58 -209 -124 -314
-225 -188 -179 -301 -372 -364 -620 -25 -98 -27 -119 -27 -325 0 -209 1 -225
28 -329 81 -309 252 -555 516 -740 307 -215 744 -284 1128 -176 145 40 342
140 430 217 l31 28 -265 318 -265 317 -43 -38 c-24 -21 -67 -51 -96 -67 -48
-27 -63 -30 -139 -30 -98 0 -148 20 -223 85 -56 50 -123 175 -144 273 -21 95
-20 272 0 360 35 143 128 271 236 324 49 25 68 28 151 28 84 0 101 -3 146 -27
66 -35 117 -92 143 -162 35 -93 52 -86 -218 -86 l-239 0 -11 -32 c-33 -105
-38 -275 -11 -370 l11 -38 708 0 709 0 6 23 c9 35 6 274 -4 357 -33 252 -174
528 -366 712 -197 191 -423 305 -679 343 -111 16 -326 18 -440 4z"/>
<path d="M15518 5325 c-272 -43 -530 -176 -729 -378 -216 -218 -332 -468 -361
-778 -39 -426 117 -821 437 -1101 245 -214 495 -313 821 -325 165 -6 259 4
409 42 454 117 835 514 930 970 53 256 33 532 -56 761 -88 225 -265 451 -471
597 -149 107 -345 186 -523 213 -112 17 -342 16 -457 -1z m374 -938 c66 -32
151 -119 179 -183 86 -193 0 -424 -189 -512 -48 -23 -71 -27 -142 -27 -71 0
-94 4 -141 26 -240 113 -302 418 -123 609 86 92 156 121 280 117 64 -3 93 -9
136 -30z"/>
<path d="M18416 5325 c-518 -84 -964 -496 -1060 -981 -43 -220 -42 -412 6
-617 77 -337 333 -663 653 -834 189 -100 344 -141 567 -150 354 -14 625 73
891 286 344 278 519 693 477 1137 -30 323 -154 579 -393 811 -187 181 -370
282 -617 339 -95 22 -410 27 -524 9z m377 -938 c187 -92 267 -325 176 -514
-35 -71 -110 -146 -181 -179 -54 -25 -75 -29 -148 -29 -76 0 -93 4 -152 33
-154 76 -238 240 -208 408 14 83 39 133 97 195 85 91 156 120 279 116 64 -3
93 -9 137 -30z"/>
</g>
</svg>
